<svg width="19" height="19" viewBox="0 0 19 19" fill="none" xmlns="http://www.w3.org/2000/svg">
<path d="M14.2031 11.3394C14.2031 10.7091 14.0885 10.2508 13.8594 9.96436C13.6302 9.64925 13.2005 9.4917 12.5703 9.4917C11.7969 9.4917 11.2526 9.72087 10.9375 10.1792C10.6224 10.6375 10.4648 11.2821 10.4648 12.1128V18.3862C10.4648 18.5295 10.4219 18.644 10.3359 18.73C10.25 18.8159 10.1354 18.8589 9.99219 18.8589H6.72656C6.61198 18.8589 6.4974 18.8159 6.38281 18.73C6.29688 18.644 6.25391 18.5295 6.25391 18.3862V6.78467C6.25391 6.67008 6.29688 6.56982 6.38281 6.48389C6.4974 6.3693 6.61198 6.31201 6.72656 6.31201H9.90625C10.0208 6.31201 10.1068 6.34066 10.1641 6.39795C10.25 6.45524 10.3073 6.54118 10.3359 6.65576C10.3359 6.77035 10.3359 6.84196 10.3359 6.87061C10.3646 6.9279 10.3789 7.02816 10.3789 7.17139C11.181 6.39795 12.2695 6.01123 13.6445 6.01123C15.1628 6.01123 16.3516 6.39795 17.2109 7.17139C18.0703 7.94482 18.5 9.07633 18.5 10.5659V18.3862C18.5 18.5295 18.4427 18.644 18.3281 18.73C18.2422 18.8159 18.1419 18.8589 18.0273 18.8589H14.6758C14.5612 18.8589 14.4466 18.8159 14.332 18.73C14.2461 18.644 14.2031 18.5295 14.2031 18.3862V11.3394ZM4.57812 2.78857C4.57812 3.39014 4.36328 3.92008 3.93359 4.37842C3.50391 4.80811 2.97396 5.02295 2.34375 5.02295C1.74219 5.02295 1.22656 4.80811 0.796875 4.37842C0.367188 3.92008 0.152344 3.39014 0.152344 2.78857C0.152344 2.15837 0.367188 1.62842 0.796875 1.19873C1.22656 0.769043 1.74219 0.554199 2.34375 0.554199C2.97396 0.554199 3.50391 0.769043 3.93359 1.19873C4.36328 1.62842 4.57812 2.15837 4.57812 2.78857ZM4.49219 6.78467V18.3862C4.49219 18.5295 4.4349 18.644 4.32031 18.73C4.23438 18.8159 4.13411 18.8589 4.01953 18.8589H0.753906C0.610677 18.8589 0.496094 18.8159 0.410156 18.73C0.324219 18.644 0.28125 18.5295 0.28125 18.3862V6.78467C0.28125 6.67008 0.324219 6.56982 0.410156 6.48389C0.496094 6.3693 0.610677 6.31201 0.753906 6.31201H4.01953C4.13411 6.31201 4.23438 6.3693 4.32031 6.48389C4.4349 6.56982 4.49219 6.67008 4.49219 6.78467Z" fill="#59A6C0"/>
</svg>
