<svg width="19" height="16" viewBox="0 0 19 16" fill="none" xmlns="http://www.w3.org/2000/svg">
<path d="M16.957 3.96826C16.957 4.14014 16.957 4.29769 16.957 4.44092C16.957 5.72998 16.7135 7.00472 16.2266 8.26514C15.7682 9.49691 15.0951 10.6284 14.207 11.6597C13.3477 12.6909 12.2161 13.536 10.8125 14.1948C9.4375 14.825 7.91927 15.1401 6.25781 15.1401C4.16667 15.1401 2.2474 14.5815 0.5 13.4644C0.786458 13.493 1.08724 13.5073 1.40234 13.5073C3.14974 13.5073 4.71094 12.9774 6.08594 11.9175C5.25521 11.8888 4.51042 11.631 3.85156 11.144C3.22135 10.6571 2.79167 10.0412 2.5625 9.29639C2.79167 9.35368 3.02083 9.38232 3.25 9.38232C3.59375 9.38232 3.92318 9.32503 4.23828 9.21045C3.37891 9.03857 2.66276 8.60889 2.08984 7.92139C1.51693 7.23389 1.23047 6.44613 1.23047 5.55811C1.23047 5.52946 1.23047 5.51514 1.23047 5.51514C1.77474 5.8016 2.34766 5.95915 2.94922 5.98779C1.83203 5.21436 1.27344 4.16878 1.27344 2.85107C1.27344 2.16357 1.44531 1.53337 1.78906 0.960449C2.73438 2.10628 3.86589 3.02295 5.18359 3.71045C6.52995 4.39795 7.97656 4.78467 9.52344 4.87061C9.46615 4.58415 9.4375 4.29769 9.4375 4.01123C9.4375 2.97998 9.79557 2.10628 10.5117 1.39014C11.2565 0.645345 12.1445 0.272949 13.1758 0.272949C14.2643 0.272949 15.181 0.659668 15.9258 1.43311C16.7852 1.26123 17.5872 0.960449 18.332 0.530762C18.0456 1.41878 17.487 2.10628 16.6562 2.59326C17.4297 2.50732 18.1602 2.32113 18.8477 2.03467C18.332 2.77946 17.7018 3.42399 16.957 3.96826Z" fill="#59A6C0"/>
</svg>
